<?xml version="1.0" encoding="UTF-8"?>
<!DOCTYPE svg PUBLIC "-//W3C//DTD SVG 1.1//EN" "http://www.w3.org/Graphics/SVG/1.1/DTD/svg11.dtd">
<svg xmlns="http://www.w3.org/2000/svg" version="1.1" width="834px" height="299px" style="shape-rendering:geometricPrecision; text-rendering:geometricPrecision; image-rendering:optimizeQuality; fill-rule:evenodd; clip-rule:evenodd" xmlns:xlink="http://www.w3.org/1999/xlink">
<g><path style="opacity:0.872" fill="#043e4b" d="M 31.5,-0.5 C 66.8333,-0.5 102.167,-0.5 137.5,-0.5C 139.5,0.166667 141.5,0.833333 143.5,1.5C 107.846,0.387375 72.1791,0.220708 36.5,1C 29.897,2.48248 23.2303,3.98248 16.5,5.5C 16.6107,4.88258 16.944,4.38258 17.5,4C 22.1845,2.17017 26.8511,0.670173 31.5,-0.5 Z"/></g>
<g><path style="opacity:1" fill="#02576a" d="M 143.5,1.5 C 178.726,7.26296 205.06,25.5963 222.5,56.5C 222.67,57.8221 222.337,58.9887 221.5,60C 224.216,61.0011 224.882,62.6677 223.5,65C 226.634,69.4041 228.801,74.2374 230,79.5C 234.838,82.8247 236.671,87.4913 235.5,93.5C 236.5,93.5 237.5,93.5 238.5,93.5C 238.229,95.3797 238.896,96.713 240.5,97.5C 244.665,110.824 246.999,124.49 247.5,138.5C 247.452,149.511 247.119,160.511 246.5,171.5C 242.312,209.701 226.979,242.535 200.5,270C 182.422,285.207 161.755,294.707 138.5,298.5C 102.833,298.5 67.1667,298.5 31.5,298.5C 21.8108,297.322 13.8108,292.988 7.5,285.5C 5.05875,278.944 2.89208,272.277 1,265.5C 0.166685,187.498 0.333352,109.498 1.5,31.5C 3.49695,27.3907 4.49695,23.224 4.5,19C 6.32917,17.0052 8.32917,15.1719 10.5,13.5C 10.2907,12.914 9.95735,12.414 9.5,12C 11.3734,10.2962 13.0401,8.46283 14.5,6.5C 14.8417,5.66175 15.5084,5.32842 16.5,5.5C 23.2303,3.98248 29.897,2.48248 36.5,1C 72.1791,0.220708 107.846,0.387375 143.5,1.5 Z"/></g>
<g><path style="opacity:0.999" fill="#03414f" d="M 14.5,6.5 C 13.0401,8.46283 11.3734,10.2962 9.5,12C 9.95735,12.414 10.2907,12.914 10.5,13.5C 8.32917,15.1719 6.32917,17.0052 4.5,19C 4.49695,23.224 3.49695,27.3907 1.5,31.5C 0.333352,109.498 0.166685,187.498 1,265.5C 2.89208,272.277 5.05875,278.944 7.5,285.5C 3.49774,280.822 0.831071,275.488 -0.5,269.5C -0.5,188.833 -0.5,108.167 -0.5,27.5C 1.16604,22.7004 3.33271,18.0338 6,13.5C 8.43559,10.5532 11.2689,8.21987 14.5,6.5 Z"/></g>
<g><path style="opacity:1" fill="#dbf8f9" d="M 92.5,135.5 C 92.8297,129.132 92.4963,122.798 91.5,116.5C 90.8933,116.624 90.56,116.957 90.5,117.5C 87.5279,119.322 84.5279,121.156 81.5,123C 79.8876,123.72 78.3876,123.554 77,122.5C 75.3213,113.521 77.6547,105.855 84,99.5C 84.0901,96.5377 82.7568,94.2043 80,92.5C 75.9389,83.772 69.7723,76.9386 61.5,72C 55.2708,66.9984 50.9374,60.8317 48.5,53.5C 48.5,49.3333 50.5,47.8333 54.5,49C 58.802,53.234 63.9686,55.734 70,56.5C 74.2726,52.9338 79.1059,50.1005 84.5,48C 93.9738,46.94 103.307,47.6067 112.5,50C 134.506,58.5115 150.506,73.3449 160.5,94.5C 175.806,95.2369 188.64,101.237 199,112.5C 199.758,114.769 199.591,116.936 198.5,119C 189.506,119.5 180.506,119.666 171.5,119.5C 182.169,162.087 169.502,195.587 133.5,220C 125.076,225.478 116.076,229.811 106.5,233C 101.852,239.646 96.5183,245.646 90.5,251C 83.944,254.112 77.2773,256.945 70.5,259.5C 69.8333,259.167 69.1667,258.833 68.5,258.5C 72.8783,252.242 74.7117,245.242 74,237.5C 77.226,233.574 77.226,229.574 74,225.5C 75.068,218.597 72.9014,213.097 67.5,209C 82.6761,206.548 94.3427,211.715 102.5,224.5C 114.858,215.135 122.691,202.802 126,187.5C 128.973,166.412 125.14,146.746 114.5,128.5C 113.726,127.289 112.893,127.289 112,128.5C 109.11,135.902 106.61,143.402 104.5,151C 102.421,151.808 100.421,151.641 98.5,150.5C 95.6719,145.842 93.6719,140.842 92.5,135.5 Z"/></g>
<g><path style="opacity:1" fill="#1f6167" d="M 82.5,59.5 C 83.8333,59.5 85.1667,59.5 86.5,59.5C 86.5,60.8333 86.5,62.1667 86.5,63.5C 85.1667,63.5 83.8333,63.5 82.5,63.5C 82.5,62.1667 82.5,60.8333 82.5,59.5 Z"/></g>
<g><path style="opacity:0.99" fill="#084b57" d="M 222.5,56.5 C 230.417,69.2258 236.417,82.8925 240.5,97.5C 238.896,96.713 238.229,95.3797 238.5,93.5C 237.5,93.5 236.5,93.5 235.5,93.5C 236.671,87.4913 234.838,82.8247 230,79.5C 228.801,74.2374 226.634,69.4041 223.5,65C 224.882,62.6677 224.216,61.0011 221.5,60C 222.337,58.9887 222.67,57.8221 222.5,56.5 Z"/></g>
<g><path style="opacity:1" fill="#5b96a1" d="M 90.5,117.5 C 90.56,116.957 90.8933,116.624 91.5,116.5C 92.4963,122.798 92.8297,129.132 92.5,135.5C 91.8333,129.5 91.1667,123.5 90.5,117.5 Z"/></g>
<g><path style="opacity:0.345" fill="#6b7c7a" d="M 322.5,134.5 C 320.095,135.768 317.428,136.435 314.5,136.5C 316.838,134.96 319.505,134.294 322.5,134.5 Z"/></g>
<g><path style="opacity:1" fill="#000000" d="M 345.5,134.5 C 348.452,136.41 351.786,137.41 355.5,137.5C 356.78,138.931 358.447,139.598 360.5,139.5C 361.995,143.651 364.995,145.984 369.5,146.5C 370.035,148.271 370.869,148.604 372,147.5C 372.333,148.833 372.667,150.167 373,151.5C 373.333,150.833 373.667,150.167 374,149.5C 374.671,150.252 375.504,150.586 376.5,150.5C 381.645,154.782 385.312,160.115 387.5,166.5C 388.256,170.767 389.589,174.767 391.5,178.5C 392.815,187.265 392.815,195.932 391.5,204.5C 390.394,205.149 389.394,205.483 388.5,205.5C 390.129,208.331 389.629,210.665 387,212.5C 386.047,215.432 385.547,218.432 385.5,221.5C 381.637,223.357 379.304,226.357 378.5,230.5C 376.833,230.5 375.167,230.5 373.5,230.5C 373.5,232.167 373.5,233.833 373.5,235.5C 370.5,235.167 369.167,236.5 369.5,239.5C 366.086,242.54 362.086,244.54 357.5,245.5C 354.753,245.187 352.086,245.52 349.5,246.5C 349.137,247.183 348.804,247.85 348.5,248.5C 340.521,249.224 332.521,249.558 324.5,249.5C 313.06,248.769 303.06,244.769 294.5,237.5C 293.089,235.086 291.089,233.419 288.5,232.5C 287.864,230.205 286.531,228.539 284.5,227.5C 284.446,225.368 283.446,224.035 281.5,223.5C 275.805,213.89 273.139,203.39 273.5,192C 273.044,180.892 275.71,170.725 281.5,161.5C 282.906,161.027 283.573,160.027 283.5,158.5C 285.587,157.415 286.92,155.749 287.5,153.5C 287.5,152.833 287.833,152.5 288.5,152.5C 289.815,151.524 291.148,150.524 292.5,149.5C 294.214,150.609 294.881,149.942 294.5,147.5C 296.39,147.703 297.89,147.037 299,145.5C 300.913,147.187 303.08,147.687 305.5,147C 305.689,144.705 307.023,142.705 309.5,141C 307.381,140.658 307.047,139.825 308.5,138.5C 310.898,138.741 312.898,138.074 314.5,136.5C 317.428,136.435 320.095,135.768 322.5,134.5C 330.147,133.243 337.813,133.243 345.5,134.5 Z M 359.5,182.5 C 362.702,197.781 358.035,209.781 345.5,218.5C 339.97,220.125 334.303,220.791 328.5,220.5C 323.787,219.31 319.453,217.31 315.5,214.5C 314.5,212.833 313.167,211.5 311.5,210.5C 311.573,208.973 310.906,207.973 309.5,207.5C 308.669,204.341 307.669,201.341 306.5,198.5C 306.274,193.438 306.608,188.438 307.5,183.5C 307.971,181.421 308.637,179.421 309.5,177.5C 310.737,176.035 311.737,174.368 312.5,172.5C 325.751,160.987 339.251,160.654 353,171.5C 355.711,174.933 357.877,178.6 359.5,182.5 Z"/></g>
<g><path style="opacity:0.251" fill="#687479" d="M 345.5,134.5 C 349.116,134.899 352.45,135.899 355.5,137.5C 351.786,137.41 348.452,136.41 345.5,134.5 Z"/></g>
<g><path style="opacity:0.345" fill="#596c6d" d="M 786.5,134.5 C 784.095,135.768 781.428,136.435 778.5,136.5C 780.838,134.96 783.505,134.294 786.5,134.5 Z"/></g>
<g><path style="opacity:0.635" fill="#97a4a7" d="M 314.5,136.5 C 312.898,138.074 310.898,138.741 308.5,138.5C 310.102,136.926 312.102,136.259 314.5,136.5 Z"/></g>
<g><path style="opacity:0.31" fill="#9eadac" d="M 537.5,138.5 C 519.472,138.221 501.472,138.554 483.5,139.5C 484.263,138.732 485.263,138.232 486.5,138C 503.672,137.172 520.672,137.338 537.5,138.5 Z"/></g>
<g><path style="opacity:0.425" fill="#889595" d="M 736.5,139.5 C 735.178,139.33 734.011,139.663 733,140.5C 728.482,138.593 723.648,137.926 718.5,138.5C 720.586,137.391 722.92,136.724 725.5,136.5C 729.506,136.765 733.173,137.765 736.5,139.5 Z"/></g>
<g><path style="opacity:0.165" fill="#697275" d="M 812.5,136.5 C 814.553,136.402 816.22,137.069 817.5,138.5C 815.447,138.598 813.78,137.931 812.5,136.5 Z"/></g>
<g><path style="opacity:0.149" fill="#6a7779" d="M 355.5,137.5 C 357.553,137.402 359.22,138.069 360.5,139.5C 358.447,139.598 356.78,138.931 355.5,137.5 Z"/></g>
<g><path style="opacity:0.235" fill="#7b8b8c" d="M 637.5,137.5 C 634.543,138.823 631.543,140.157 628.5,141.5C 630.712,138.642 633.712,137.309 637.5,137.5 Z"/></g>
<g><path style="opacity:0.875" fill="#a6b5b6" d="M 644.5,137.5 C 648.567,137.206 651.9,138.54 654.5,141.5C 650.723,141.066 647.39,139.733 644.5,137.5 Z"/></g>
<g><path style="opacity:1" fill="#000000" d="M 812.5,136.5 C 813.78,137.931 815.447,138.598 817.5,138.5C 830.935,141.369 834.768,149.036 829,161.5C 823.114,168.374 816.28,169.374 808.5,164.5C 806.383,162.345 803.716,161.345 800.5,161.5C 800.167,161.5 799.833,161.5 799.5,161.5C 799.082,160.778 798.416,160.278 797.5,160C 793.179,159.501 788.846,159.334 784.5,159.5C 783.683,163.645 783.349,167.645 783.5,171.5C 785.351,173.456 787.684,174.456 790.5,174.5C 792.153,174.66 793.486,175.326 794.5,176.5C 795.78,177.931 797.447,178.598 799.5,178.5C 800.78,179.931 802.447,180.598 804.5,180.5C 806.102,182.074 808.102,182.741 810.5,182.5C 823.018,186.014 830.684,194.014 833.5,206.5C 833.5,211.167 833.5,215.833 833.5,220.5C 832.833,222.167 832.167,223.833 831.5,225.5C 829.588,226.98 828.421,228.98 828,231.5C 827.667,231.167 827.333,230.833 827,230.5C 826.506,232.134 826.34,233.801 826.5,235.5C 825.504,235.586 824.671,235.252 824,234.5C 821.053,238.124 817.553,240.957 813.5,243C 814.252,243.671 814.586,244.504 814.5,245.5C 811.715,247.095 808.715,248.095 805.5,248.5C 795.815,248.578 786.148,248.245 776.5,247.5C 766.919,246.813 758.753,243.147 752,236.5C 751.536,235.906 751.369,235.239 751.5,234.5C 750.671,229.547 750.337,224.547 750.5,219.5C 752.262,218.738 753.262,217.404 753.5,215.5C 757.434,214.64 761.434,214.307 765.5,214.5C 765.281,215.675 765.614,216.675 766.5,217.5C 768.416,216.752 770.416,216.752 772.5,217.5C 774.117,218.038 775.784,218.371 777.5,218.5C 779.515,219.924 781.848,220.59 784.5,220.5C 786.099,220.232 787.432,220.566 788.5,221.5C 792.646,222.647 796.98,222.814 801.5,222C 802.056,221.617 802.389,221.117 802.5,220.5C 804.048,220.179 804.715,219.179 804.5,217.5C 804.871,213.997 803.871,210.997 801.5,208.5C 801.027,207.094 800.027,206.427 798.5,206.5C 796.597,206.204 794.93,205.537 793.5,204.5C 791.824,202.166 789.491,201.166 786.5,201.5C 760.089,196.444 750.756,181.11 758.5,155.5C 760.759,154.656 761.759,152.989 761.5,150.5C 762.906,150.027 763.573,149.027 763.5,147.5C 764.5,145.833 765.833,144.5 767.5,143.5C 769.749,142.92 771.415,141.587 772.5,139.5C 774.181,137.992 776.181,136.992 778.5,136.5C 781.428,136.435 784.095,135.768 786.5,134.5C 795.226,133.778 803.893,134.444 812.5,136.5 Z"/></g>
<g><path style="opacity:0.38" fill="#000000" d="M 483.5,139.5 C 483.027,140.906 482.027,141.573 480.5,141.5C 480.973,140.094 481.973,139.427 483.5,139.5 Z"/></g>
<g><path style="opacity:1" fill="#000000" d="M 644.5,137.5 C 647.39,139.733 650.723,141.066 654.5,141.5C 654.427,143.027 655.094,144.027 656.5,144.5C 657.268,145.263 657.768,146.263 658,147.5C 658.667,177.833 658.667,208.167 658,238.5C 656.902,244.433 653.402,247.766 647.5,248.5C 641.678,248.79 636.012,248.123 630.5,246.5C 627.677,245.008 626.01,242.674 625.5,239.5C 625.5,228.167 625.5,216.833 625.5,205.5C 617.648,205.175 609.982,205.508 602.5,206.5C 602.049,218.795 601.049,231.129 599.5,243.5C 597.712,243.215 596.045,243.548 594.5,244.5C 594.938,245.506 595.604,245.506 596.5,244.5C 597.298,244.957 597.631,245.624 597.5,246.5C 591.975,248.02 586.309,248.687 580.5,248.5C 578.447,248.598 576.78,247.931 575.5,246.5C 574.738,244.738 573.404,243.738 571.5,243.5C 571.5,243.167 571.5,242.833 571.5,242.5C 570.536,210.187 570.203,177.854 570.5,145.5C 571.683,144.496 573.016,143.662 574.5,143C 573.402,142.23 573.402,141.397 574.5,140.5C 576.429,140.769 578.095,140.269 579.5,139C 583.5,138.333 587.5,138.333 591.5,139C 593.232,141.784 595.732,144.617 599,147.5C 599.333,157.833 599.667,168.167 600,178.5C 600.333,167.833 600.667,157.167 601,146.5C 601.17,157.674 601.67,168.674 602.5,179.5C 609.982,180.492 617.648,180.825 625.5,180.5C 625.5,169.167 625.5,157.833 625.5,146.5C 625.75,144.326 626.75,142.659 628.5,141.5C 631.543,140.157 634.543,138.823 637.5,137.5C 639.833,136.167 642.167,136.167 644.5,137.5 Z"/></g>
<g><path style="opacity:1" fill="#000000" d="M 718.5,138.5 C 723.648,137.926 728.482,138.593 733,140.5C 734.011,139.663 735.178,139.33 736.5,139.5C 737.492,139.328 738.158,139.662 738.5,140.5C 738.738,142.404 739.738,143.738 741.5,144.5C 741.987,145.473 742.487,146.473 743,147.5C 743.667,173.5 743.667,199.5 743,225.5C 739.827,238.507 731.66,246.174 718.5,248.5C 711.191,249.248 703.858,249.582 696.5,249.5C 694.585,249.784 692.919,249.451 691.5,248.5C 689.485,247.076 687.152,246.41 684.5,246.5C 672.582,243.086 665.915,235.252 664.5,223C 664.3,220.134 664.967,217.634 666.5,215.5C 668.167,214.5 669.5,213.167 670.5,211.5C 677.619,207.691 684.952,207.525 692.5,211C 695.626,213.45 697.959,216.45 699.5,220C 702.146,220.497 704.813,220.664 707.5,220.5C 708.79,219.942 709.623,218.942 710,217.5C 710.5,193.836 710.667,170.169 710.5,146.5C 710.5,146.167 710.5,145.833 710.5,145.5C 711.906,145.027 712.573,144.027 712.5,142.5C 713.663,140.018 715.663,138.684 718.5,138.5 Z"/></g>
<g><path style="opacity:0.998" fill="#c5d9d9" d="M 308.5,138.5 C 307.047,139.825 307.381,140.658 309.5,141C 307.023,142.705 305.689,144.705 305.5,147C 303.08,147.687 300.913,147.187 299,145.5C 297.89,147.037 296.39,147.703 294.5,147.5C 294.881,149.942 294.214,150.609 292.5,149.5C 291.148,150.524 289.815,151.524 288.5,152.5C 290.239,149.59 292.572,147.09 295.5,145C 299.309,141.762 303.642,139.596 308.5,138.5 Z"/></g>
<g><path style="opacity:0.459" fill="#677476" d="M 738.5,140.5 C 740.262,141.262 741.262,142.596 741.5,144.5C 739.738,143.738 738.738,142.404 738.5,140.5 Z"/></g>
<g><path style="opacity:0.275" fill="#707c78" d="M 480.5,141.5 C 480.573,143.027 479.906,144.027 478.5,144.5C 478.427,142.973 479.094,141.973 480.5,141.5 Z"/></g>
<g><path style="opacity:0.953" fill="#90a1a0" d="M 574.5,140.5 C 573.402,141.397 573.402,142.23 574.5,143C 573.016,143.662 571.683,144.496 570.5,145.5C 571.136,143.205 572.469,141.539 574.5,140.5 Z"/></g>
<g><path style="opacity:0.651" fill="#8b9797" d="M 772.5,139.5 C 771.415,141.587 769.749,142.92 767.5,143.5C 768.585,141.413 770.251,140.08 772.5,139.5 Z"/></g>
<g><path style="opacity:0.125" fill="#546464" d="M 599.5,141.5 C 600.906,141.973 601.573,142.973 601.5,144.5C 600.094,144.027 599.427,143.027 599.5,141.5 Z"/></g>
<g><path style="opacity:0.188" fill="#72837e" d="M 654.5,141.5 C 655.906,141.973 656.573,142.973 656.5,144.5C 655.094,144.027 654.427,143.027 654.5,141.5 Z"/></g>
<g><path style="opacity:0.149" fill="#6b7779" d="M 712.5,142.5 C 712.573,144.027 711.906,145.027 710.5,145.5C 710.427,143.973 711.094,142.973 712.5,142.5 Z"/></g>
<g><path style="opacity:1" fill="#000000" d="M 432.5,149.5 C 432.5,174.167 432.5,198.833 432.5,223.5C 442.833,223.5 453.167,223.5 463.5,223.5C 465.587,224.585 466.92,226.251 467.5,228.5C 467.666,232.846 467.499,237.179 467,241.5C 466.282,240.549 465.449,240.383 464.5,241C 465.554,242.388 465.72,243.888 465,245.5C 464.667,245.167 464.333,244.833 464,244.5C 463.59,245.901 463.09,247.234 462.5,248.5C 445.338,249.662 428.005,249.829 410.5,249C 402.414,246.86 398.414,241.527 398.5,233C 399.004,203.124 399.837,173.291 401,143.5C 409.203,135.71 418.37,134.544 428.5,140C 431.076,142.651 432.409,145.818 432.5,149.5 Z"/></g>
<g><path style="opacity:0.196" fill="#000000" d="M 550.5,144.5 C 552.262,145.262 553.262,146.596 553.5,148.5C 551.738,147.738 550.738,146.404 550.5,144.5 Z"/></g>
<g><path style="opacity:1" fill="#000000" d="M 537.5,138.5 C 542.472,139.153 546.805,141.153 550.5,144.5C 550.738,146.404 551.738,147.738 553.5,148.5C 554.5,148.833 555.167,149.5 555.5,150.5C 555.427,152.027 556.094,153.027 557.5,153.5C 560.541,157.956 562.208,162.956 562.5,168.5C 562.329,173.196 561.829,177.863 561,182.5C 560.974,179.895 559.807,178.729 557.5,179C 558.719,181.283 558.719,183.616 557.5,186C 557.892,187.011 558.559,187.511 559.5,187.5C 558.625,189.773 556.958,190.773 554.5,190.5C 554.859,192.766 554.192,194.599 552.5,196C 552.957,196.414 553.291,196.914 553.5,197.5C 552.271,198.281 550.938,198.781 549.5,199C 549.957,199.414 550.291,199.914 550.5,200.5C 546.776,202.314 544.109,204.98 542.5,208.5C 538.902,210.692 534.902,211.692 530.5,211.5C 523.5,211.5 516.5,211.5 509.5,211.5C 509.5,220.167 509.5,228.833 509.5,237.5C 508.89,243.615 505.556,247.449 499.5,249C 490.995,250.92 483.829,248.753 478,242.5C 476.855,226.231 476.355,209.897 476.5,193.5C 476.667,178.167 476.833,162.833 477,147.5C 477.232,146.263 477.732,145.263 478.5,144.5C 479.906,144.027 480.573,143.027 480.5,141.5C 482.027,141.573 483.027,140.906 483.5,139.5C 501.472,138.554 519.472,138.221 537.5,138.5 Z M 526.5,161.5 C 528.833,162.5 530.5,164.167 531.5,166.5C 532.299,169.43 532.632,172.43 532.5,175.5C 531.833,177.5 531.167,179.5 530.5,181.5C 528.973,181.427 527.973,182.094 527.5,183.5C 526.391,183.557 525.391,183.89 524.5,184.5C 519.833,184.5 515.167,184.5 510.5,184.5C 510.5,176.5 510.5,168.5 510.5,160.5C 515.895,160.267 521.228,160.6 526.5,161.5 Z"/></g>
<g><path style="opacity:0.065" fill="#000000" d="M 247.5,138.5 C 248.832,149.536 248.499,160.536 246.5,171.5C 247.119,160.511 247.452,149.511 247.5,138.5 Z"/></g>
<g><path style="opacity:0.949" fill="#bacbcc" d="M 360.5,139.5 C 366.885,141.688 372.218,145.355 376.5,150.5C 375.504,150.586 374.671,150.252 374,149.5C 373.667,150.167 373.333,150.833 373,151.5C 372.667,150.167 372.333,148.833 372,147.5C 370.869,148.604 370.035,148.271 369.5,146.5C 364.995,145.984 361.995,143.651 360.5,139.5 Z"/></g>
<g><path style="opacity:0.239" fill="#748384" d="M 763.5,147.5 C 763.573,149.027 762.906,150.027 761.5,150.5C 761.427,148.973 762.094,147.973 763.5,147.5 Z"/></g>
<g><path style="opacity:0.125" fill="#5e686b" d="M 555.5,150.5 C 556.906,150.973 557.573,151.973 557.5,153.5C 556.094,153.027 555.427,152.027 555.5,150.5 Z"/></g>
<g><path style="opacity:0.18" fill="#819190" d="M 570.5,145.5 C 570.203,177.854 570.536,210.187 571.5,242.5C 570.778,242.082 570.278,241.416 570,240.5C 569.169,208.664 569.336,176.997 570.5,145.5 Z"/></g>
<g><path style="opacity:1" fill="#c4dbda" d="M 599.5,141.5 C 599.427,143.027 600.094,144.027 601.5,144.5C 602.404,145.209 602.737,146.209 602.5,147.5C 602.5,158.167 602.5,168.833 602.5,179.5C 601.67,168.674 601.17,157.674 601,146.5C 600.667,157.167 600.333,167.833 600,178.5C 599.667,168.167 599.333,157.833 599,147.5C 595.732,144.617 593.232,141.784 591.5,139C 587.5,138.333 583.5,138.333 579.5,139C 578.095,140.269 576.429,140.769 574.5,140.5C 574.611,139.883 574.944,139.383 575.5,139C 581.733,136.348 588.067,136.014 594.5,138C 596.584,138.697 598.251,139.864 599.5,141.5 Z"/></g>
<g><path style="opacity:0.115" fill="#5e6b6a" d="M 625.5,146.5 C 625.5,157.833 625.5,169.167 625.5,180.5C 617.648,180.825 609.982,180.492 602.5,179.5C 602.5,168.833 602.5,158.167 602.5,147.5C 603.494,157.987 603.828,168.654 603.5,179.5C 610.422,179.812 617.256,179.479 624,178.5C 624.17,167.659 624.67,156.992 625.5,146.5 Z"/></g>
<g><path style="opacity:0.221" fill="#869595" d="M 710.5,146.5 C 710.667,170.169 710.5,193.836 710,217.5C 709.623,218.942 708.79,219.942 707.5,220.5C 707.892,218.821 708.392,217.154 709,215.5C 709.168,192.33 709.668,169.33 710.5,146.5 Z"/></g>
<g><path style="opacity:0.847" fill="#98a6a8" d="M 761.5,150.5 C 761.759,152.989 760.759,154.656 758.5,155.5C 758.75,153.326 759.75,151.659 761.5,150.5 Z"/></g>
<g><path style="opacity:0.231" fill="#819090" d="M 287.5,153.5 C 286.92,155.749 285.587,157.415 283.5,158.5C 284.08,156.251 285.413,154.585 287.5,153.5 Z"/></g>
<g><path style="opacity:0.908" fill="#97a7a6" d="M 799.5,161.5 C 796.807,161.428 794.14,161.095 791.5,160.5C 786.237,160.704 784.071,163.371 785,168.5C 786.36,171.023 788.193,173.023 790.5,174.5C 787.684,174.456 785.351,173.456 783.5,171.5C 783.349,167.645 783.683,163.645 784.5,159.5C 788.846,159.334 793.179,159.501 797.5,160C 798.416,160.278 799.082,160.778 799.5,161.5 Z"/></g>
<g><path style="opacity:0.161" fill="#718381" d="M 283.5,158.5 C 283.573,160.027 282.906,161.027 281.5,161.5C 281.427,159.973 282.094,158.973 283.5,158.5 Z"/></g>
<g><path style="opacity:1" fill="#c9dedd" d="M 359.5,182.5 C 357.877,178.6 355.711,174.933 353,171.5C 339.251,160.654 325.751,160.987 312.5,172.5C 312.674,170.139 313.007,167.806 313.5,165.5C 315.861,165.326 318.194,164.993 320.5,164.5C 320.5,163.5 320.5,162.5 320.5,161.5C 327.171,160.999 333.837,160.832 340.5,161C 343.607,161.543 346.44,162.709 349,164.5C 349.333,163.833 349.667,163.167 350,162.5C 351.887,164.026 352.887,166.026 353,168.5C 355.091,167.5 356.757,168.167 358,170.5C 358.684,171.784 358.517,172.951 357.5,174C 362.002,174.935 362.335,176.269 358.5,178C 359.624,178.249 360.624,178.749 361.5,179.5C 361.154,180.696 360.654,180.696 360,179.5C 359.517,180.448 359.351,181.448 359.5,182.5 Z"/></g>
<g><path style="opacity:0.333" fill="#636f6f" d="M 800.5,161.5 C 803.716,161.345 806.383,162.345 808.5,164.5C 805.603,163.871 802.936,162.871 800.5,161.5 Z"/></g>
<g><path style="opacity:0.098" fill="#495656" d="M 526.5,161.5 C 521.228,160.6 515.895,160.267 510.5,160.5C 510.5,168.5 510.5,176.5 510.5,184.5C 515.167,184.5 519.833,184.5 524.5,184.5C 519.695,185.487 514.695,185.821 509.5,185.5C 509.5,176.833 509.5,168.167 509.5,159.5C 514.844,159.334 520.177,159.501 525.5,160C 526.056,160.383 526.389,160.883 526.5,161.5 Z"/></g>
<g><path style="opacity:0.776" fill="#7b8a8b" d="M 387.5,166.5 C 389.806,170.085 391.139,174.085 391.5,178.5C 389.589,174.767 388.256,170.767 387.5,166.5 Z"/></g>
<g><path style="opacity:0.122" fill="#637076" d="M 531.5,166.5 C 532.117,166.611 532.617,166.944 533,167.5C 533.801,170.367 533.634,173.034 532.5,175.5C 532.632,172.43 532.299,169.43 531.5,166.5 Z"/></g>
<g><path style="opacity:0.765" fill="#94a39e" d="M 312.5,172.5 C 311.737,174.368 310.737,176.035 309.5,177.5C 309.5,175.833 309.5,174.167 309.5,172.5C 310.5,172.5 311.5,172.5 312.5,172.5 Z"/></g>
<g><path style="opacity:0.09" fill="#465251" d="M 794.5,176.5 C 796.553,176.402 798.22,177.069 799.5,178.5C 797.447,178.598 795.78,177.931 794.5,176.5 Z"/></g>
<g><path style="opacity:0.125" fill="#4c5556" d="M 799.5,178.5 C 801.553,178.402 803.22,179.069 804.5,180.5C 802.447,180.598 800.78,179.931 799.5,178.5 Z"/></g>
<g><path style="opacity:0.196" fill="#647273" d="M 804.5,180.5 C 806.786,180.595 808.786,181.262 810.5,182.5C 808.102,182.741 806.102,182.074 804.5,180.5 Z"/></g>
<g><path style="opacity:0.231" fill="#63726c" d="M 530.5,181.5 C 530.027,182.906 529.027,183.573 527.5,183.5C 527.973,182.094 528.973,181.427 530.5,181.5 Z"/></g>
<g><path style="opacity:0.106" fill="#657171" d="M 307.5,183.5 C 306.608,188.438 306.274,193.438 306.5,198.5C 305.352,194.019 305.185,189.352 306,184.5C 306.383,183.944 306.883,183.611 307.5,183.5 Z"/></g>
<g><path style="opacity:1" fill="#aec0bf" d="M 562.5,168.5 C 564.412,183.544 559.412,196.044 547.5,206C 545.922,207.094 544.255,207.928 542.5,208.5C 544.109,204.98 546.776,202.314 550.5,200.5C 550.291,199.914 549.957,199.414 549.5,199C 550.938,198.781 552.271,198.281 553.5,197.5C 553.291,196.914 552.957,196.414 552.5,196C 554.192,194.599 554.859,192.766 554.5,190.5C 556.958,190.773 558.625,189.773 559.5,187.5C 558.559,187.511 557.892,187.011 557.5,186C 558.719,183.616 558.719,181.283 557.5,179C 559.807,178.729 560.974,179.895 561,182.5C 561.829,177.863 562.329,173.196 562.5,168.5 Z"/></g>
<g><path style="opacity:0.686" fill="#899594" d="M 786.5,201.5 C 789.491,201.166 791.824,202.166 793.5,204.5C 790.843,204.065 788.509,203.065 786.5,201.5 Z"/></g>
<g><path style="opacity:0.188" fill="#647674" d="M 798.5,206.5 C 800.027,206.427 801.027,207.094 801.5,208.5C 799.973,208.573 798.973,207.906 798.5,206.5 Z"/></g>
<g><path style="opacity:0.687" fill="#bfd0d1" d="M 602.5,206.5 C 602.5,216.833 602.5,227.167 602.5,237.5C 602.645,241.547 600.978,244.547 597.5,246.5C 597.631,245.624 597.298,244.957 596.5,244.5C 595.604,245.506 594.938,245.506 594.5,244.5C 596.045,243.548 597.712,243.215 599.5,243.5C 601.049,231.129 602.049,218.795 602.5,206.5 Z"/></g>
<g><path style="opacity:0.137" fill="#5c6667" d="M 309.5,207.5 C 310.906,207.973 311.573,208.973 311.5,210.5C 310.094,210.027 309.427,209.027 309.5,207.5 Z"/></g>
<g><path style="opacity:0.075" fill="#323c3c" d="M 602.5,206.5 C 603.167,206.5 603.833,206.5 604.5,206.5C 603.855,216.932 603.189,227.265 602.5,237.5C 602.5,227.167 602.5,216.833 602.5,206.5 Z"/></g>
<g><path style="opacity:0.134" fill="#5c6967" d="M 602.5,206.5 C 609.982,205.508 617.648,205.175 625.5,205.5C 625.5,216.833 625.5,228.167 625.5,239.5C 624.506,229.013 624.172,218.346 624.5,207.5C 617.758,207.806 611.092,207.473 604.5,206.5C 603.833,206.5 603.167,206.5 602.5,206.5 Z"/></g>
<g><path style="opacity:0.38" fill="#6c7a7b" d="M 311.5,210.5 C 313.167,211.5 314.5,212.833 315.5,214.5C 313.167,214.167 311.833,212.833 311.5,210.5 Z"/></g>
<g><path style="opacity:0.924" fill="#a4b7b7" d="M 391.5,204.5 C 391.069,210.798 389.069,216.465 385.5,221.5C 385.547,218.432 386.047,215.432 387,212.5C 389.629,210.665 390.129,208.331 388.5,205.5C 389.394,205.483 390.394,205.149 391.5,204.5 Z"/></g>
<g><path style="opacity:0.38" fill="#637372" d="M 670.5,211.5 C 669.5,213.167 668.167,214.5 666.5,215.5C 666.833,213.167 668.167,211.833 670.5,211.5 Z"/></g>
<g><path style="opacity:0.596" fill="#6b7c7c" d="M 753.5,215.5 C 753.262,217.404 752.262,218.738 750.5,219.5C 750.738,217.596 751.738,216.262 753.5,215.5 Z"/></g>
<g><path style="opacity:1" fill="#95a3a3" d="M 772.5,216.5 C 772.5,216.833 772.5,217.167 772.5,217.5C 770.416,216.752 768.416,216.752 766.5,217.5C 765.614,216.675 765.281,215.675 765.5,214.5C 761.434,214.307 757.434,214.64 753.5,215.5C 753.611,214.883 753.944,214.383 754.5,214C 760.942,211.989 766.942,212.822 772.5,216.5 Z"/></g>
<g><path style="opacity:0.157" fill="#526164" d="M 772.5,217.5 C 772.5,217.167 772.5,216.833 772.5,216.5C 774.553,216.402 776.22,217.069 777.5,218.5C 775.784,218.371 774.117,218.038 772.5,217.5 Z"/></g>
<g><path style="opacity:0.085" fill="#4d5858" d="M 530.5,211.5 C 524.021,212.491 517.354,212.824 510.5,212.5C 510.826,221.017 510.493,229.35 509.5,237.5C 509.5,228.833 509.5,220.167 509.5,211.5C 516.5,211.5 523.5,211.5 530.5,211.5 Z"/></g>
<g><path style="opacity:0.004" fill="#33403b" d="M 777.5,218.5 C 780.152,218.41 782.485,219.076 784.5,220.5C 781.848,220.59 779.515,219.924 777.5,218.5 Z"/></g>
<g><path style="opacity:0.514" fill="#667474" d="M 804.5,217.5 C 804.715,219.179 804.048,220.179 802.5,220.5C 802.932,219.29 803.599,218.29 804.5,217.5 Z"/></g>
<g><path style="opacity:0.647" fill="#9daba8" d="M 345.5,218.5 C 344.158,219.793 342.491,220.626 340.5,221C 336.311,221.812 332.311,221.645 328.5,220.5C 334.303,220.791 339.97,220.125 345.5,218.5 Z"/></g>
<g><path style="opacity:0.031" fill="#414c50" d="M 802.5,220.5 C 802.389,221.117 802.056,221.617 801.5,222C 796.98,222.814 792.646,222.647 788.5,221.5C 793.23,221.717 797.897,221.383 802.5,220.5 Z"/></g>
<g><path style="opacity:0.253" fill="#5a6564" d="M 432.5,149.5 C 433.498,173.661 433.831,197.994 433.5,222.5C 443.681,222.173 453.681,222.506 463.5,223.5C 453.167,223.5 442.833,223.5 432.5,223.5C 432.5,198.833 432.5,174.167 432.5,149.5 Z"/></g>
<g><path style="opacity:0.557" fill="#717f7c" d="M 281.5,223.5 C 283.446,224.035 284.446,225.368 284.5,227.5C 283.026,226.564 282.026,225.23 281.5,223.5 Z"/></g>
<g><path style="opacity:0.258" fill="#606e6e" d="M 750.5,219.5 C 750.337,224.547 750.671,229.547 751.5,234.5C 748.308,229.631 747.975,224.631 750.5,219.5 Z"/></g>
<g><path style="opacity:0.792" fill="#92a2a3" d="M 831.5,225.5 C 830.873,229.42 829.207,232.753 826.5,235.5C 826.34,233.801 826.506,232.134 827,230.5C 827.333,230.833 827.667,231.167 828,231.5C 828.421,228.98 829.588,226.98 831.5,225.5 Z"/></g>
<g><path style="opacity:0.247" fill="#6a7573" d="M 284.5,227.5 C 286.531,228.539 287.864,230.205 288.5,232.5C 286.457,231.421 285.124,229.754 284.5,227.5 Z"/></g>
<g><path style="opacity:1" fill="#afc1bf" d="M 385.5,221.5 C 381.96,229.043 376.626,235.043 369.5,239.5C 369.167,236.5 370.5,235.167 373.5,235.5C 373.5,233.833 373.5,232.167 373.5,230.5C 375.167,230.5 376.833,230.5 378.5,230.5C 379.304,226.357 381.637,223.357 385.5,221.5 Z"/></g>
<g><path style="opacity:0.451" fill="#687471" d="M 288.5,232.5 C 291.089,233.419 293.089,235.086 294.5,237.5C 291.911,236.581 289.911,234.914 288.5,232.5 Z"/></g>
<g><path style="opacity:0.976" fill="#8d9da0" d="M 467.5,228.5 C 469.953,233.278 470.119,238.278 468,243.5C 466.924,246.079 465.091,247.746 462.5,248.5C 463.09,247.234 463.59,245.901 464,244.5C 464.333,244.833 464.667,245.167 465,245.5C 465.72,243.888 465.554,242.388 464.5,241C 465.449,240.383 466.282,240.549 467,241.5C 467.499,237.179 467.666,232.846 467.5,228.5 Z"/></g>
<g><path style="opacity:0.965" fill="#adbfbf" d="M 826.5,235.5 C 823.381,239.957 819.381,243.291 814.5,245.5C 814.586,244.504 814.252,243.671 813.5,243C 817.553,240.957 821.053,238.124 824,234.5C 824.671,235.252 825.504,235.586 826.5,235.5 Z"/></g>
<g><path style="opacity:0.263" fill="#718486" d="M 571.5,243.5 C 573.404,243.738 574.738,244.738 575.5,246.5C 573.596,246.262 572.262,245.262 571.5,243.5 Z"/></g>
<g><path style="opacity:0.92" fill="#a8b9b9" d="M 357.5,245.5 C 354.916,247.472 351.916,248.472 348.5,248.5C 348.804,247.85 349.137,247.183 349.5,246.5C 352.086,245.52 354.753,245.187 357.5,245.5 Z"/></g>
<g><path style="opacity:0.396" fill="#889994" d="M 684.5,246.5 C 687.152,246.41 689.485,247.076 691.5,248.5C 688.848,248.59 686.515,247.924 684.5,246.5 Z"/></g>
<g><path style="opacity:0.125" fill="#7b8888" d="M 597.5,246.5 C 596.158,247.793 594.491,248.626 592.5,249C 588.311,249.812 584.311,249.645 580.5,248.5C 586.309,248.687 591.975,248.02 597.5,246.5 Z"/></g>
<g><path style="opacity:0.131" fill="#7d8d8e" d="M 630.5,246.5 C 636.012,248.123 641.678,248.79 647.5,248.5C 643.689,249.645 639.689,249.812 635.5,249C 633.509,248.626 631.842,247.793 630.5,246.5 Z"/></g>
<g><path style="opacity:0.196" fill="#8b9a9a" d="M 776.5,247.5 C 786.148,248.245 795.815,248.578 805.5,248.5C 801.849,249.165 798.015,249.499 794,249.5C 787.926,249.659 782.092,248.993 776.5,247.5 Z"/></g>
<g><path style="opacity:0.111" fill="#586565" d="M 348.5,248.5 C 343.745,249.942 338.745,250.608 333.5,250.5C 330.314,250.498 327.314,250.165 324.5,249.5C 332.521,249.558 340.521,249.224 348.5,248.5 Z"/></g>
<g><path style="opacity:0.11" fill="#596565" d="M 718.5,248.5 C 714.258,249.968 709.758,250.634 705,250.5C 701.979,250.498 699.146,250.164 696.5,249.5C 703.858,249.582 711.191,249.248 718.5,248.5 Z"/></g>
</svg>
