<?xml version="1.0" standalone="no"?>
<!DOCTYPE svg PUBLIC "-//W3C//DTD SVG 20010904//EN"
 "http://www.w3.org/TR/2001/REC-SVG-20010904/DTD/svg10.dtd">
<svg version="1.0" xmlns="http://www.w3.org/2000/svg"
 width="834.000000pt" height="299.000000pt" viewBox="0 0 834.000000 299.000000"
 preserveAspectRatio="xMidYMid meet">

<g transform="translate(0.000000,299.000000) scale(0.100000,-0.100000)"
fill="#000000" stroke="none">
<path d="M330 2970 c-187 -35 -272 -109 -315 -275 -13 -48 -15 -228 -15 -1196
0 -1085 1 -1142 19 -1207 43 -156 108 -223 258 -264 74 -21 103 -22 537 -26
431 -3 465 -2 577 18 415 73 700 284 887 657 77 154 158 424 183 611 18 142 6
417 -25 561 -69 312 -202 592 -371 778 -119 132 -322 255 -499 304 -184 50
-216 52 -691 55 -399 2 -461 0 -545 -16z m886 -525 c96 -48 132 -73 205 -142
79 -75 189 -222 189 -252 0 -6 20 -11 45 -11 62 0 156 -33 224 -79 61 -42 131
-113 131 -134 -1 -35 -16 -39 -148 -41 -72 0 -133 -4 -136 -7 -4 -3 1 -37 10
-75 22 -97 15 -363 -13 -449 -53 -162 -169 -316 -322 -428 -70 -52 -246 -148
-301 -166 -26 -8 -48 -28 -80 -73 -60 -82 -123 -130 -221 -167 -104 -40 -119
-36 -84 22 18 32 25 58 25 95 0 28 7 67 16 86 16 32 16 37 0 75 -9 23 -16 63
-16 89 0 41 -5 53 -30 77 -27 26 -29 30 -13 36 10 4 34 4 53 2 148 -19 198
-43 247 -117 l31 -46 50 41 c90 73 149 176 177 307 38 183 0 422 -93 580 l-26
46 -22 -51 c-13 -28 -27 -77 -33 -109 -7 -39 -18 -65 -32 -76 -28 -24 -36 -23
-63 7 -34 36 -56 118 -63 228 -3 53 -8 97 -10 97 -2 0 -28 -17 -59 -37 -52
-34 -56 -35 -72 -19 -34 33 -5 165 49 222 19 20 19 21 -40 110 -41 60 -83 108
-131 148 -90 75 -168 160 -176 192 -7 28 19 74 42 74 9 0 41 -16 72 -35 74
-45 113 -53 138 -28 63 62 104 74 247 70 l118 -3 115 -59z"/>
<path fill="#000" d="M830 2370 c0 -15 5 -20 18 -18 9 2 17 10 17 18 0 8 -8 16 -17 18 -13
2 -18 -3 -18 -18z"/>
</g>
</svg>
